<mxfile host="app.diagrams.net" modified="2022-09-23T00:26:09.187Z" agent="5.0 (Macintosh; Intel Mac OS X 10_15_7) AppleWebKit/537.36 (KHTML, like Gecko) Chrome/105.0.0.0 Safari/537.36" etag="7dv_EOT82RAxX19lzDFr" version="20.3.6" type="github">
  <diagram id="prtHgNgQTEPvFCAcTncT" name="Page-1">
    <mxGraphModel dx="1018" dy="587" grid="1" gridSize="10" guides="1" tooltips="1" connect="1" arrows="1" fold="1" page="1" pageScale="1" pageWidth="827" pageHeight="1169" math="0" shadow="0">
      <root>
        <mxCell id="0" />
        <mxCell id="1" parent="0" />
        <mxCell id="dNxyNK7c78bLwvsdeMH5-11" value="Design D0" style="swimlane;html=1;startSize=20;horizontal=1;containerType=tree;glass=0;" parent="1" vertex="1">
          <mxGeometry x="40" y="80" width="710" height="290" as="geometry" />
        </mxCell>
        <mxCell id="Rgvb1xxGz0S1u8dP_nST-5" style="edgeStyle=orthogonalEdgeStyle;rounded=0;orthogonalLoop=1;jettySize=auto;html=1;entryX=0.5;entryY=0;entryDx=0;entryDy=0;" edge="1" parent="dNxyNK7c78bLwvsdeMH5-11" source="Rgvb1xxGz0S1u8dP_nST-1" target="Rgvb1xxGz0S1u8dP_nST-4">
          <mxGeometry relative="1" as="geometry" />
        </mxCell>
        <mxCell id="Rgvb1xxGz0S1u8dP_nST-7" style="edgeStyle=orthogonalEdgeStyle;rounded=0;orthogonalLoop=1;jettySize=auto;html=1;entryX=0.5;entryY=0;entryDx=0;entryDy=0;" edge="1" parent="dNxyNK7c78bLwvsdeMH5-11" source="Rgvb1xxGz0S1u8dP_nST-1" target="Rgvb1xxGz0S1u8dP_nST-3">
          <mxGeometry relative="1" as="geometry" />
        </mxCell>
        <mxCell id="Rgvb1xxGz0S1u8dP_nST-1" value="Raspberry Pi OS" style="rounded=0;whiteSpace=wrap;html=1;" vertex="1" parent="dNxyNK7c78bLwvsdeMH5-11">
          <mxGeometry x="295" y="115" width="120" height="60" as="geometry" />
        </mxCell>
        <mxCell id="Rgvb1xxGz0S1u8dP_nST-4" value="Engine ECU" style="rounded=0;whiteSpace=wrap;html=1;" vertex="1" parent="dNxyNK7c78bLwvsdeMH5-11">
          <mxGeometry x="80" y="190" width="120" height="60" as="geometry" />
        </mxCell>
        <mxCell id="Rgvb1xxGz0S1u8dP_nST-3" value="Audio System" style="rounded=0;whiteSpace=wrap;html=1;" vertex="1" parent="dNxyNK7c78bLwvsdeMH5-11">
          <mxGeometry x="490" y="190" width="120" height="60" as="geometry" />
        </mxCell>
        <mxCell id="Rgvb1xxGz0S1u8dP_nST-9" style="edgeStyle=orthogonalEdgeStyle;rounded=0;orthogonalLoop=1;jettySize=auto;html=1;entryX=0.5;entryY=0;entryDx=0;entryDy=0;" edge="1" parent="dNxyNK7c78bLwvsdeMH5-11" source="Rgvb1xxGz0S1u8dP_nST-8" target="Rgvb1xxGz0S1u8dP_nST-1">
          <mxGeometry relative="1" as="geometry" />
        </mxCell>
        <mxCell id="Rgvb1xxGz0S1u8dP_nST-8" value="Raspberry Pi" style="rounded=0;whiteSpace=wrap;html=1;" vertex="1" parent="dNxyNK7c78bLwvsdeMH5-11">
          <mxGeometry x="295" y="30" width="120" height="60" as="geometry" />
        </mxCell>
      </root>
    </mxGraphModel>
  </diagram>
</mxfile>
